<svg xmlns="http://www.w3.org/2000/svg" viewBox="0 0 1280 320" width="1280" height="320" role="img" aria-label="cc-aws-keepalive"><title>cc-aws-keepalive</title><defs><clipPath id="c"><rect width="1280" height="320" rx="18"/></clipPath></defs><g clip-path="url(#c)"><rect width="1280" height="320" fill="#fff3e6"/><ellipse cx="1000" cy="302" rx="110" ry="9" fill="#ead9c6"/><path d="M940 254l-26 44" stroke="#3a2a22" stroke-width="12" stroke-linecap="round"/><path d="M1060 254l26 44" stroke="#3a2a22" stroke-width="12" stroke-linecap="round"/><path d="M888 110A48 48 0 0 1 956 42Z" fill="#f5a524"/><path d="M1112 110A48 48 0 0 0 1044 42Z" fill="#f5a524"/><rect x="994" y="36" width="12" height="30" rx="4" fill="#3a2a22"/><path d="M940 52Q1000 20 1060 52" fill="none" stroke="#3a2a22" stroke-width="8" stroke-linecap="round"/><rect x="1100" y="162" width="36" height="12" rx="4" fill="#3a2a22"/><path d="M1132 136h16a8 8 0 0 1 8 8v50a8 8 0 0 1-8 8h-16z" fill="#d97757"/><circle cx="1000" cy="170" r="108" fill="#d97757"/><circle cx="1000" cy="170" r="86" fill="#fffaf2"/><ellipse cx="970" cy="172" rx="9" ry="12" fill="#3a2a22"/><ellipse cx="1030" cy="172" rx="9" ry="12" fill="#3a2a22"/><path d="M978 202Q1000 220 1022 202" fill="none" stroke="#3a2a22" stroke-width="6" stroke-linecap="round"/><ellipse cx="946" cy="198" rx="12" ry="7" fill="#f7b7a3"/><ellipse cx="1054" cy="198" rx="12" ry="7" fill="#f7b7a3"/><path d="M1000 144V104M1000 144L1030 126" stroke="#d97757" stroke-width="6" stroke-linecap="round"/><circle cx="1000" cy="144" r="6" fill="#3a2a22"/><path fill="#3a2a22"  d="m109.9 157q-3.3 0-6.7-1.2-3.5-1.3-6.5-3.7-3-2.5-4.8-6.2-1.8-3.6-1.8-8.5 0-4.8 1.8-8.4 1.8-3.6 4.8-6.1 2.9-2.4 6.4-3.7 3.4-1.2 6.6-1.2 2.8 0 5 .6 2.2.7 3.7 1.5 1.5.8 2.1 1.3 1.4 1 2.6 2 1.1 1.1 1.1 2.9-.1 1-.5 1.9-.4.9-1.2 2.1-2.5 3.6-5 3.5-1.1-.2-2.1-.6-.9-.5-1.7-1-.8-.6-1.8-1-.9-.4-2.2-.4-1.9 0-3.4.9-1.5.9-2.4 2.4-.9 1.5-.9 3.4 0 1.9.9 3.4 .9 1.6 2.4 2.4 1.5.9 3.3.9 1.1 0 2-.2 .8-.3 1.3-.6 .6-.4.8-.5 1-.6 1.9-1.1 .9-.5 1.8-.5 1.2 0 2.4.8 1.3.9 2.8 2.9 1.4 1.7 1.6 3.3 .2 1.5-.8 2.9-.9 1.3-2.9 2.6-.4.3-1.8 1.1-1.5.8-3.7 1.5-2.2.6-5.1.6zm37.5 0q-3.2 0-6.7-1.2-3.5-1.3-6.4-3.7-3-2.5-4.8-6.2-1.9-3.6-1.9-8.5 0-4.8 1.9-8.4 1.8-3.6 4.7-6.1 3-2.4 6.4-3.7 3.5-1.2 6.7-1.2 2.8 0 5 .6 2.2.7 3.6 1.5 1.5.8 2.1 1.3 1.4 1 2.6 2 1.2 1.1 1.1 2.9 0 1-.4 1.9-.4.9-1.2 2.1-2.5 3.6-5 3.5-1.2-.2-2.1-.6-1-.5-1.8-1-.8-.6-1.7-1-1-.4-2.2-.4-1.9 0-3.4.9-1.6.9-2.5 2.4-.8 1.5-.8 3.4 0 1.9.8 3.4 .9 1.6 2.4 2.4 1.5.9 3.3.9 1.1 0 2-.2 .8-.3 1.4-.6 .5-.4.7-.5 1-.6 1.9-1.1 .9-.5 1.8-.5 1.2 0 2.5.8 1.2.9 2.7 2.9 1.5 1.7 1.7 3.3 .1 1.5-.8 2.9-1 1.3-2.9 2.6-.4.3-1.9 1.1-1.4.8-3.7 1.5-2.2.6-5.1.6zm22.8-14.7q-1.1 0-2.4-.3-1.3-.2-2.1-1.5-.9-1.2-.9-4.1 0-2.8.9-4 .9-1.1 2.2-1.4 1.2-.3 2.3-.3h17.3q1.2 0 2.5.3 1.2.3 2.1 1.5 .8 1.1.8 4 0 2.8-.8 4-.8 1.3-2.1 1.5-1.2.3-2.5.3zm58.1 14.3q-3.2 0-4.7-1.1-1.4-1.1-1.4-2.5l.9-.6q-.4.6-1.6 1.6-1.2 1-3.1 1.8-2 .8-4.8.8-3.5 0-6.6-1.6-3.2-1.5-5.6-4.2-2.5-2.7-3.9-6.2-1.4-3.4-1.4-7.2 0-3.7 1.4-7.1 1.4-3.4 3.9-6.1 2.5-2.7 5.6-4.2 3.1-1.5 6.6-1.5 2.7 0 4.6.7 1.9.8 3.1 1.8 1.2 1 1.7 1.8l-.7-.5q-.1-1.9 1.4-2.9 1.5-1 4.6-1 3.1 0 4.4.9 1.3 1 1.6 2.4 .3 1.5.3 3.1v25.5q0 1.5-.3 3-.3 1.5-1.6 2.4-1.3.9-4.4.9zm-12.9-12.6q1.7 0 3.1-.9 1.4-.9 2.2-2.4 .9-1.4.9-3.2 0-1.9-.9-3.4-.8-1.4-2.3-2.3-1.4-.9-3.2-.9-1.8 0-3.3.9-1.5.9-2.4 2.4-.9 1.5-.9 3.4 0 1.7.9 3.2 .9 1.5 2.5 2.3 1.5.9 3.4.9zm39.6 12.9q-2.2 0-3.4-.9-1.3-.9-1.8-2.1-.6-1.2-.9-2l-10.4-25.7q-.6-1.9-.5-3.3 0-1.3.9-2.3 1-1 3-1.8 3.2-1.3 5.3-.7 2 .5 2.9 3.4l4.9 13.2 4.3-11.9q.3-.7.9-1.8 .5-1 1.8-1.9 1.2-.8 3.3-.8 2.3 0 3.5.8 1.2.9 1.9 2 .6 1 .8 1.8l4.3 11.9 4.5-12.3q1.2-3.1 3.1-4.2 1.9-1.1 5 .3 3 1.3 4.1 3.2 1.1 1.8-.2 4.6l-10.5 25.5q-.3.9-.9 2.1-.5 1.2-1.7 2-1.2.9-3.3.9-2.2 0-3.4-.8-1.2-.7-1.8-1.9-.6-1.1-1-2.3l-4.3-11.7-4.3 11.7q-.5 1.5-1 2.6-.5 1.1-1.7 1.7-1.1.7-3.4.7zm54.5.4q-2.1 0-4.6-.4-2.6-.5-4.9-1.4-2.4-.9-4-2.2-1.5-1.2-1.6-2.8-.1-.8.2-1.7 .2-.9.8-1.9 .6-1.1 1.4-2.3 .6-.7 1.3-1.1 .7-.3 1.8-.1 1.2.1 2.5.7 1.3.5 2.6 1.2 1.2.7 2.6 1.3 1.4.5 2.9.5 1.8 0 2.8-.5 .9-.5.9-1.3 0-.8-.5-1.2-.5-.5-1.4-.8-.8-.4-2-.6-1.1-.3-2.4-.6-1.3-.3-2.7-.8-1.8-.5-3.5-1.4-1.8-.8-3.1-2.2-1.4-1.4-2.2-3.4-.9-2-.9-4.9 0-3.8 1.8-6.4 1.8-2.6 5.3-3.9 3.4-1.4 8.5-1.4 1.3 0 2.6.2 1.3.2 2.7.5 1.3.3 2.6.8 1.3.6 2.6 1.2 2.6 1.2 2.7 3.2 .1 2-1.5 4.1-.9 1.4-1.8 2-.9.7-1.9.6-1.2-.2-2.6-.9-1.4-.7-3-1.3-1.6-.7-3.2-.7-1.1 0-1.8.3-.8.2-1.2.7-.4.5-.4 1.1 0 .9.6 1.4 .6.6 1.5.9 1 .4 2.3.6 1.3.3 2.7.5 2 .4 4.2 1 2.1.7 3.8 1.9 1.8 1.2 2.9 3.3 1.1 2.1 1.1 5.5 0 6.2-4.3 9.5-4.2 3.2-12.2 3.2zm24.3-15q-1.1 0-2.4-.3-1.2-.2-2.1-1.5-.8-1.2-.8-4.1 0-2.8.8-4 .9-1.1 2.2-1.4 1.2-.3 2.3-.3h17.4q1.1 0 2.4.3 1.2.3 2.1 1.5 .8 1.1.8 4 0 2.8-.8 4-.8 1.3-2 1.5-1.3.3-2.6.3zm59.4 3q2.6 2.2 2.8 4.3 .2 2-2.3 4.7-1.9 1.9-3.2 2.5-1.4.6-2.7 0-1.3-.5-3.2-2.1l-10.6-9.7v5.4q0 1.6-.3 3.1-.3 1.4-1.6 2.3-1.3.9-4.4.9-3.1 0-4.4-.9-1.4-.9-1.6-2.4-.3-1.5-.3-3v-43.1q0-1.7.3-3.1 .3-1.4 1.6-2.3 1.4-1 4.4-1 3.1 0 4.4 1 1.3.9 1.6 2.3 .3 1.5.3 3.1v22l7.5-7.3q1.6-1.6 3.1-2.2 1.5-.5 2.9 0 1.4.5 3 2.2 2.7 2.9 2.6 4.8-.1 1.8-2.6 4.3l-7.2 6.4zm23.5 12.2q-5.5 0-9.4-1.8-3.9-1.8-6.4-4.8-2.4-2.9-3.6-6.4-1.1-3.5-1.1-6.9 0-5.9 2.6-10.3 2.6-4.5 7.3-7.1 4.6-2.5 10.6-2.5 4.6 0 7.8 1.4 3.3 1.5 5.4 3.8 2.1 2.3 3.1 4.9 1 2.6 1 4.9 0 4.3-2 6.5-2.1 2.1-5.3 2.1h-17.2q.2 1.6 1.3 2.7 1.1 1.1 2.8 1.8 1.7.6 3.6.6 1.7 0 3.1-.2 1.3-.2 2.3-.5 .9-.3 1.8-.7 .8-.3 1.4-.5 .7-.2 1.3-.2 1.2-.1 2.3.7 1 .8 1.9 2.5 .5.9.7 1.7 .2.9.2 1.6 0 2.1-1.9 3.5-1.8 1.5-5.3 2.3-3.4.9-8.3.9zm-7.2-22.9h10.3q1.1 0 1.6-.4 .6-.5.6-1.5 0-1.2-.7-2.1-.7-.8-1.9-1.3-1.2-.4-2.8-.4-2.1 0-3.7.8-1.6.8-2.5 2.1-.8 1.3-.9 2.8zm47.9 22.9q-5.5 0-9.4-1.8-3.9-1.8-6.3-4.8-2.5-2.9-3.6-6.4-1.2-3.5-1.2-6.9 0-5.9 2.6-10.3 2.6-4.5 7.3-7.1 4.6-2.5 10.6-2.5 4.6 0 7.9 1.4 3.3 1.5 5.4 3.8 2.1 2.3 3.1 4.9 1 2.6 1 4.9 0 4.3-2.1 6.5-2.1 2.1-5.3 2.1h-17.2q.3 1.6 1.4 2.7 1.1 1.1 2.8 1.8 1.6.6 3.5.6 1.8 0 3.1-.2 1.3-.2 2.3-.5 1-.3 1.8-.7 .8-.3 1.4-.5 .7-.2 1.3-.2 1.2-.1 2.3.7 1.1.8 1.9 2.5 .5.9.7 1.7 .2.9.2 1.6 0 2.1-1.8 3.5-1.9 1.5-5.3 2.3-3.5.9-8.4.9zm-7.2-22.9h10.3q1.1 0 1.7-.4 .5-.5.5-1.5 0-1.2-.7-2.1-.7-.8-1.9-1.3-1.2-.4-2.8-.4-2.1 0-3.7.8-1.6.8-2.4 2.1-.9 1.3-1 2.8zm48.9 21.3q-3.7 0-6.5-1.5-2.8-1.5-4.6-4.1-1.8-2.6-2.7-5.9-.9-3.4-.8-7.2 0-3.7 1-7.1 .9-3.4 2.7-6 1.8-2.6 4.5-4.1 2.7-1.6 6.4-1.6 3.4 0 6.5 1.6 3.2 1.5 5.6 4.2 2.5 2.7 3.9 6.1 1.5 3.4 1.5 7.1 0 3.8-1.5 7.2-1.4 3.4-3.8 5.9-2.5 2.5-5.6 4-3.2 1.4-6.6 1.4zm-14.3 16.7q-3.1 0-4.4-.9-1.3-.9-1.6-2.3-.2-1.4-.2-2.9v-41.9q0-1.6.2-3 .3-1.4 1.6-2.3 1.3-.9 4.3-.9 2.5 0 4.1.7 1.6.7 2.2 2.2v45.1q.2 1.6-.2 3-.3 1.4-1.6 2.3-1.3.9-4.4.9zm12.6-28.5q1.8 0 3.3-.9 1.5-.9 2.4-2.4 .8-1.5.8-3.3 0-1.8-.8-3.3-.9-1.5-2.3-2.4-1.5-.8-3.3-.8-1.8 0-3.3.9-1.5.8-2.3 2.3-.9 1.5-.9 3.3 0 1.8.9 3.3 .9 1.5 2.4 2.4 1.4.9 3.1.9zm54 12.5q-3.1 0-4.6-1.1-1.5-1.1-1.4-2.5l.9-.6q-.4.6-1.6 1.6-1.2 1-3.2 1.8-1.9.8-4.8.8-3.4 0-6.6-1.6-3.1-1.5-5.6-4.2-2.4-2.7-3.9-6.2-1.4-3.4-1.4-7.2 0-3.7 1.4-7.1 1.5-3.4 4-6.1 2.5-2.7 5.6-4.2 3.1-1.5 6.5-1.5 2.7 0 4.6.7 1.9.8 3.1 1.8 1.2 1 1.8 1.8l-.8-.5q0-1.9 1.4-2.9 1.5-1 4.7-1 3.1 0 4.4.9 1.2 1 1.5 2.4 .3 1.5.3 3.1v25.5q0 1.5-.3 3-.3 1.5-1.5 2.4-1.3.9-4.5.9zm-12.9-12.6q1.7 0 3.1-.9 1.4-.9 2.3-2.4 .8-1.4.8-3.2 0-1.9-.8-3.4-.9-1.4-2.3-2.3-1.5-.9-3.2-.9-1.9 0-3.4.9-1.5.9-2.4 2.4-.8 1.5-.8 3.4 0 1.7.9 3.2 .9 1.5 2.4 2.3 1.6.9 3.4.9zm39.9 12.7q-3.3 0-5.8-.3-2.6-.3-4.3-1.3-1.8-.9-2.9-2.5-1.1-1.7-1.6-4.4-.5-2.6-.5-6.5v-34.4q0-1.7.3-3.1 .3-1.4 1.6-2.4 1.3-.9 4.4-.9 3.1 0 4.4.9 1.3 1 1.6 2.4 .3 1.5.3 3.1v33.6q0 1.2.1 2 0 .7.3 1.1 .3.3.8.4 .5.1 1.3.1 1 0 2.1.3 1 .2 1.7 1.5 .7 1.2.7 4.1 0 3.1-.7 4.5-.7 1.3-1.8 1.5-1 .3-2 .3zm14.5 0q-3.1 0-4.4-.9-1.3-.9-1.6-2.4-.2-1.5-.2-3v-25.7q0-1.6.3-3 .3-1.4 1.6-2.3 1.3-.9 4.4-.9 3.1 0 4.4.9 1.3.9 1.6 2.4 .3 1.4.3 3.1v25.5q0 1.6-.3 3.1-.3 1.4-1.6 2.3-1.3.9-4.5.9zm0-42.9q-3.1 0-4.4-.9-1.4-.9-1.6-2.4-.3-1.5-.3-3.1 0-1.7.3-3.1 .3-1.4 1.6-2.3 1.4-.9 4.5-.9 3.1 0 4.4.9 1.3.9 1.6 2.4 .3 1.5.3 3.1 0 1.6-.3 3.1-.3 1.4-1.6 2.3-1.3.9-4.5.9zm31.1 43.2q-2 0-3.4-.7-1.5-.8-2.2-2.3l-13.6-26.5q-1.5-3-.9-5 .5-2 3.7-3.5 3.3-1.6 5.2-1.1 1.8.5 3.4 3.9l7.8 18.1 7.8-18q1.6-3.5 3.5-4.1 1.8-.5 5.1 1.2 3.3 1.6 3.8 3.7 .4 2.1-1 4.9l-13.6 26.3q-.7 1.6-2.1 2.4-1.4.7-3.5.7zm41.3.5q-5.5 0-9.4-1.8-3.9-1.8-6.3-4.8-2.4-2.9-3.6-6.4-1.2-3.5-1.2-6.9 0-5.9 2.7-10.3 2.6-4.5 7.2-7.1 4.7-2.5 10.7-2.5 4.5 0 7.8 1.4 3.3 1.5 5.4 3.8 2.1 2.3 3.1 4.9 1 2.6 1 4.9 0 4.3-2.1 6.5-2 2.1-5.3 2.1h-17.1q.2 1.6 1.3 2.7 1.1 1.1 2.8 1.8 1.7.6 3.6.6 1.7 0 3-.2 1.4-.2 2.3-.5 1-.3 1.8-.7 .8-.3 1.5-.5 .6-.2 1.2-.2 1.3-.1 2.3.7 1.1.8 1.9 2.5 .5.9.8 1.7 .2.9.2 1.6 0 2.1-1.9 3.5-1.8 1.5-5.3 2.3-3.4.9-8.4.9zm-7.1-22.9h10.3q1.1 0 1.6-.4 .5-.5.5-1.5 0-1.2-.6-2.1-.7-.8-1.9-1.3-1.2-.4-2.9-.4-2 0-3.6.8-1.6.8-2.5 2.1-.9 1.3-.9 2.8z"/><path fill="#8a6a58"  d="m101.7 204.4q-1.4 0-2.8-.5-1.3-.4-2.6-1.2-1.2-.8-2.1-2-.9-1.1-1.5-2.7-.5-1.5-.5-3.3 0-1.8.5-3.3 .6-1.5 1.5-2.6 .9-1.2 2.1-2 1.2-.7 2.6-1.1 1.4-.4 2.8-.5 1.4 0 2.4.3 .9.3 1.6.6 .6.4.8.5 .4.2.8.6 .3.3.4.7 0 .3-.1.6-.1.2-.3.4-.2.4-.5.6-.3.2-.6.2-.3 0-.5-.2-.2-.1-.6-.4-.2-.1-.6-.3-.5-.3-1.2-.5-.7-.2-1.7-.2-1.3 0-2.5.5-1.2.4-2.1 1.3-.9.8-1.4 2.1-.5 1.2-.5 2.8 0 1.6.5 2.8 .5 1.2 1.4 2.1 .9.9 2.1 1.3 1.2.5 2.5.5 .9 0 1.7-.2 .7-.2 1.2-.5 .4-.3.7-.4 .3-.2.5-.3 .3-.2.5-.2 .3 0 .6.2 .3.2.5.6 .2.2.3.5 .1.2.1.5-.1.5-.4.8-.4.3-.8.5-.2.1-.9.5-.6.3-1.6.6-.9.3-2.3.3zm13.1-.1q-1 0-1.7-.2-.7-.1-1.3-.4-.5-.4-.8-.9-.4-.5-.5-1.3-.2-.8-.2-1.8v-13.3q0-.4.1-.7 .1-.3.4-.5 .3-.2.9-.2 .6 0 .9.2 .3.1.4.5 .1.3.1.7v13.2q0 .5.1.9 .1.4.3.6 .2.2.5.3 .3.1.8.1 .3 0 .6.1 .2.1.4.4 .1.3.1.9 0 .6-.1.9-.2.3-.4.4-.3.1-.6.1zm14.4-.1q-.7 0-1-.2-.3-.3-.3-.8l.1-1.1q-.2.3-.8.9-.5.5-1.4.9-.9.4-2.1.4-1.3 0-2.4-.6-1.1-.5-2-1.4-.8-.9-1.3-2.1-.5-1.2-.5-2.6 0-1.3.5-2.5 .5-1.2 1.3-2.1 .9-.9 2-1.4 1.1-.5 2.4-.5 1.1 0 1.9.3 .8.3 1.4.8 .6.5 1 1l-.1-1q0-.5.3-.8 .3-.3 1-.3 .7 0 1 .2 .2.2.3.5 .1.4.1.8v10.2q0 .4-.1.7-.1.4-.4.6-.2.1-.9.1zm-5.1-2.7q1 0 1.8-.5 .9-.5 1.3-1.4 .5-.8.5-1.9 0-1.2-.5-2.1-.5-.8-1.3-1.3-.8-.5-1.8-.5-1.2 0-2 .5-.9.5-1.4 1.4-.5.9-.5 2 0 1.1.5 2 .5.8 1.4 1.3 .9.5 2 .5zm14.8 2.8q-1.2 0-2.3-.5-1-.4-1.8-1.2-.7-.8-1.2-2-.4-1.1-.4-2.5v-5.6q0-.4.1-.8 .1-.3.4-.4 .3-.2.9-.2 .7 0 1 .2 .3.1.3.5 .1.3.1.7v5.6q0 1.1.4 1.8 .3.8 1 1.2 .7.5 1.8.5 1 0 1.8-.5 .7-.4 1.1-1.2 .5-.7.5-1.8v-5.6q0-.4 0-.8 .1-.3.4-.5 .3-.1 1-.1 .6 0 .9.2 .3.1.4.5 0 .3 0 .7v10.4q0 .4 0 .7-.1.3-.4.5-.3.1-.9.1-.5 0-.8-.1-.2-.1-.4-.2-.1-.2-.1-.4-.1-.2-.1-.4l.2-.9q-.2.3-.6.6-.3.4-.8.7-.5.3-1.1.6-.7.2-1.4.2zm15.1 0q-1.2 0-2.3-.5-1.2-.5-2-1.4-.8-.9-1.3-2.1-.5-1.3-.5-2.7 0-1.4.5-2.6 .5-1.1 1.3-2 .9-.9 2-1.4 1.1-.5 2.3-.5 1.3 0 2.3.5 1.1.5 1.8 1.4 .8.9 1.2 2.1 .4 1.2.4 2.5 0 1.5-.4 2.7-.4 1.1-1.1 2-.8.9-1.8 1.5-1.1.5-2.4.5zm.4-2.8q1 0 1.8-.5 .9-.5 1.3-1.3 .5-.9.5-2 0-1.2-.4-2-.5-.9-1.4-1.4-.8-.5-1.8-.5-1.1 0-1.9.5-.8.5-1.3 1.4-.5.8-.5 2 0 1.1.5 2 .5.8 1.3 1.3 .9.5 1.9.5zm5.1 2.8q-.7 0-1-.3-.3-.2-.4-.7v-16.8q0-.4.1-.8 .1-.3.4-.5 .3-.2.9-.2 .6 0 .9.2 .3.2.4.5 .1.3.1.8v16.3q0 .4-.1.8-.1.3-.4.5-.2.2-.9.2zm10.8.1q-1.7 0-3-.5-1.3-.6-2.2-1.5-.9-1-1.3-2.2-.5-1.2-.5-2.6 0-1.9.9-3.4 .9-1.5 2.4-2.3 1.6-.9 3.6-.9 1.4 0 2.5.4 1.1.5 1.8 1.2 .8.7 1.2 1.6 .4.9.4 1.7 0 1.4-.7 2-.7.6-1.6.6h-7.5q0 1.1.6 1.9 .6.7 1.5 1.1 1 .4 1.9.4 .7 0 1.3 0 .5-.1.9-.3 .4-.1.7-.2 .3-.2.5-.3 .2-.1.5-.1 .2-.1.5.1 .2.1.4.4 .2.3.2.5 .1.2.1.4 0 .5-.7.9-.6.5-1.8.8-1.1.3-2.6.3zm-4-7.6h6.1q.5 0 .8-.2 .2-.1.2-.6 0-.7-.4-1.3-.4-.5-1.1-.9-.8-.3-1.7-.3-1.1 0-2 .4-.9.5-1.4 1.2-.5.8-.5 1.7zm28.1 7.6q-1.4 0-2.7-.5-1.4-.4-2.6-1.2-1.2-.8-2.2-2-.9-1.1-1.4-2.7-.6-1.5-.6-3.3 0-1.8.6-3.3 .5-1.5 1.4-2.6 1-1.2 2.2-2 1.2-.7 2.6-1.1 1.3-.4 2.8-.5 1.3 0 2.3.3 1 .3 1.6.6 .6.4.8.5 .4.2.8.6 .4.3.4.7 0 .3 0 .6-.1.2-.3.4-.3.4-.6.6-.2.2-.5.2-.3 0-.6-.2-.2-.1-.5-.4-.2-.1-.7-.3-.4-.3-1.1-.5-.8-.2-1.8-.2-1.3 0-2.4.5-1.2.4-2.1 1.3-.9.8-1.5 2.1-.5 1.2-.5 2.8 0 1.6.5 2.8 .6 1.2 1.5 2.1 .9.9 2.1 1.3 1.1.5 2.4.5 1 0 1.7-.2 .7-.2 1.2-.5 .5-.3.7-.4 .3-.2.5-.3 .3-.2.6-.2 .3 0 .5.2 .3.2.6.6 .1.2.2.5 .1.2.1.5 0 .5-.4.8-.4.3-.8.5-.2.1-.8.5-.6.3-1.6.6-1 .3-2.4.3zm14.8 0q-1.3 0-2.5-.5-1.2-.5-2.2-1.4-1-.9-1.5-2.1-.6-1.3-.6-2.7 0-1.4.5-2.6 .6-1.3 1.5-2.2 .9-.9 2.1-1.5 1.3-.5 2.6-.5 1.9 0 3.4.9 1.6.9 2.5 2.4 .9 1.5.9 3.5 0 1.5-.6 2.7-.5 1.3-1.5 2.2-.9.9-2.1 1.3-1.2.5-2.5.5zm-.1-2.7q1.1 0 2-.5 .9-.5 1.4-1.5 .6-.9.6-2.1 0-1.1-.5-2-.5-.9-1.4-1.4-.9-.5-2.1-.5-1.1 0-2 .5-.8.5-1.4 1.4-.5.9-.5 2 0 1.3.6 2.2 .5.9 1.4 1.4 .9.5 1.9.5zm14.8 2.6q-1.2 0-2.3-.5-1.1-.5-2-1.4-.8-.9-1.3-2.1-.5-1.3-.5-2.7 0-1.4.5-2.6 .5-1.1 1.3-2 .9-.9 2-1.4 1.1-.5 2.3-.5 1.3 0 2.4.5 1 .5 1.8 1.4 .7.9 1.1 2.1 .4 1.2.4 2.5 0 1.5-.4 2.7-.4 1.1-1.1 2-.7.9-1.8 1.5-1 .5-2.4.5zm.4-2.8q1 0 1.9-.5 .8-.5 1.3-1.3 .5-.9.5-2 0-1.2-.5-2-.5-.9-1.3-1.4-.9-.5-1.9-.5-1 0-1.9.5-.8.5-1.3 1.4-.5.8-.5 2 0 1.1.5 2 .5.8 1.3 1.3 .9.5 1.9.5zm5.1 2.8q-.6 0-.9-.3-.4-.2-.4-.7v-16.8q0-.4 0-.8 .1-.3.4-.5 .3-.2.9-.2 .7 0 1 .2 .3.2.3.5 .1.3.1.8v16.3q0 .4 0 .8-.1.3-.4.5-.3.2-1 .2zm10.8.1q-1.7 0-3-.5-1.3-.6-2.2-1.5-.8-1-1.3-2.2-.4-1.2-.4-2.6 0-1.9.8-3.4 .9-1.5 2.5-2.3 1.5-.9 3.5-.9 1.4 0 2.5.4 1.1.5 1.9 1.2 .7.7 1.1 1.6 .4.9.4 1.7 0 1.4-.7 2-.6.6-1.6.6h-7.5q0 1.1.6 1.9 .6.7 1.6 1.1 .9.4 1.9.4 .7 0 1.2 0 .5-.1.9-.3 .4-.1.7-.2 .3-.2.5-.3 .3-.1.5-.1 .3-.1.5.1 .3.1.4.4 .2.3.3.5 0 .2 0 .4 0 .5-.6.9-.7.5-1.8.8-1.2.3-2.7.3zm-4-7.6h6.2q.5 0 .7-.2 .3-.1.3-.6 0-.7-.5-1.3-.4-.5-1.1-.9-.7-.3-1.7-.3-1.1 0-2 .4-.9.5-1.4 1.2-.5.8-.5 1.7zm23.5 7.6q-.7 0-1.4-.1-.8-.2-1.4-.4-.7-.3-1.3-.7-.5-.3-.7-.8-.1-.3-.1-.5 0-.3.1-.5 .2-.3.4-.5 .3-.3.5-.3 .3-.1.7.2 .3.2.7.4 .4.2.9.4 .4.2.9.4 .4.1.9.1 1.1 0 1.8-.4 .6-.4.6-1.1 0-.4-.1-.7-.2-.3-.5-.5-.4-.2-.8-.4-.4-.1-.9-.3-.5-.1-1-.3-.7-.1-1.4-.4-.6-.3-1.2-.7-.5-.4-.9-1-.3-.6-.3-1.6 0-1.2.6-2 .5-.8 1.6-1.3 1.1-.4 2.5-.4 .6 0 1.1.1 .5 0 1 .2 .5.2.9.4 .5.2.9.5 .5.4.6.8 0 .4-.4.9-.2.4-.5.5-.3.1-.7-.1-.4-.2-.9-.5-.5-.2-1-.4-.5-.2-1.1-.2-.6 0-1 .2-.5.2-.8.5-.2.4-.2.8 0 .4.2.7 .2.2.6.4 .3.2.8.3 .5.2 1.1.3 .7.2 1.5.4 .8.3 1.5.7 .7.4 1.1 1.1 .4.7.4 1.8 0 1.9-1.4 3-1.5 1-3.9 1zm14.2 0q-1.7 0-3-.5-1.3-.6-2.1-1.5-.9-1-1.4-2.2-.4-1.2-.4-2.6 0-1.9.9-3.4 .8-1.5 2.4-2.3 1.5-.9 3.6-.9 1.4 0 2.4.4 1.1.5 1.9 1.2 .7.7 1.1 1.6 .4.9.4 1.7 0 1.4-.6 2-.7.6-1.7.6h-7.5q0 1.1.6 1.9 .7.7 1.6 1.1 .9.4 1.9.4 .7 0 1.2 0 .6-.1.9-.3 .4-.1.7-.2 .3-.2.6-.3 .2-.1.4-.1 .3-.1.5.1 .3.1.5.4 .1.3.2.5 .1.2.1.4 0 .5-.7.9-.7.5-1.8.8-1.2.3-2.7.3zm-4-7.6h6.2q.5 0 .7-.2 .3-.1.3-.6 0-.7-.4-1.3-.5-.5-1.2-.9-.7-.3-1.6-.3-1.1 0-2 .4-.9.5-1.5 1.2-.5.8-.5 1.7zm16.8 7.6q-.7 0-1.5-.1-.7-.2-1.4-.4-.7-.3-1.2-.7-.5-.3-.7-.8-.1-.3-.1-.5 0-.3.1-.5 .1-.3.3-.5 .3-.3.6-.3 .2-.1.6.2 .4.2.8.4 .4.2.8.4 .5.2.9.4 .5.1.9.1 1.2 0 1.8-.4 .7-.4.7-1.1 0-.4-.2-.7-.2-.3-.5-.5-.3-.2-.7-.4-.4-.1-.9-.3-.5-.1-1-.3-.7-.1-1.4-.4-.7-.3-1.2-.7-.6-.4-.9-1-.4-.6-.4-1.6 0-1.2.6-2 .6-.8 1.7-1.3 1-.4 2.5-.4 .6 0 1.1.1 .5 0 .9.2 .5.2 1 .4 .4.2.8.5 .6.4.6.8 0 .4-.3.9-.3.4-.6.5-.3.1-.6-.1-.4-.2-.9-.5-.5-.2-1-.4-.6-.2-1.1-.2-.6 0-1.1.2-.5.2-.7.5-.3.4-.3.8 0 .4.2.7 .3.2.6.4 .4.2.9.3 .5.2 1 .3 .8.2 1.6.4 .8.3 1.4.7 .7.4 1.1 1.1 .4.7.4 1.8 0 1.9-1.4 3-1.4 1-3.8 1zm12 0q-.7 0-1.4-.1-.7-.2-1.4-.4-.7-.3-1.2-.7-.6-.3-.7-.8-.2-.3-.2-.5 0-.3.2-.5 .1-.3.3-.5 .3-.3.5-.3 .3-.1.7.2 .3.2.7.4 .5.2.9.4 .4.2.9.4 .5.1.9.1 1.1 0 1.8-.4 .7-.4.7-1.1 0-.4-.2-.7-.2-.3-.5-.5-.3-.2-.8-.4-.4-.1-.9-.3-.4-.1-.9-.3-.7-.1-1.4-.4-.7-.3-1.3-.7-.5-.4-.9-1-.3-.6-.3-1.6 0-1.2.6-2 .6-.8 1.6-1.3 1.1-.4 2.6-.4 .5 0 1 .1 .5 0 1 .2 .5.2.9.4 .5.2.9.5 .5.4.6.8 0 .4-.4.9-.2.4-.5.5-.3.1-.6-.1-.5-.2-1-.5-.4-.2-1-.4-.5-.2-1-.2-.7 0-1.1.2-.5.2-.8.5-.2.4-.2.8 0 .4.2.7 .2.2.6.4 .4.2.8.3 .5.2 1.1.3 .7.2 1.5.4 .8.3 1.5.7 .7.4 1.1 1.1 .4.7.4 1.8 0 1.9-1.4 3-1.4 1-3.9 1zm9.5-.1q-.7 0-1-.2-.3-.2-.4-.5 0-.3 0-.8v-10.3q0-.4.1-.7 0-.3.3-.5 .3-.2 1-.2 .6 0 .9.2 .3.2.4.5 .1.3.1.7v10.4q0 .4-.1.7-.1.3-.4.5-.3.2-.9.2zm0-16.1q-.7 0-1.1-.2-.3-.2-.4-.6-.1-.4-.1-.8 0-.5.1-.8 .1-.4.5-.6 .3-.2 1-.2 .7 0 1 .2 .3.2.4.6 .1.4.1.8 0 .5-.1.8-.1.4-.4.6-.3.2-1 .2zm10.5 16.2q-1.3 0-2.5-.5-1.2-.5-2.2-1.4-1-.9-1.5-2.1-.6-1.3-.6-2.7 0-1.4.5-2.6 .6-1.3 1.5-2.2 .9-.9 2.2-1.5 1.2-.5 2.6-.5 1.8 0 3.4.9 1.5.9 2.4 2.4 .9 1.5.9 3.5 0 1.5-.6 2.7-.5 1.3-1.5 2.2-.9.9-2.1 1.3-1.2.5-2.5.5zm0-2.7q1 0 1.9-.5 .9-.5 1.4-1.5 .6-.9.6-2.1 0-1.1-.5-2-.5-.9-1.4-1.4-.9-.5-2.1-.5-1.1 0-1.9.5-.9.5-1.5 1.4-.5.9-.5 2 0 1.3.6 2.2 .5.9 1.4 1.4 .9.5 2 .5zm10.4 2.5q-.6 0-.9-.1-.3-.2-.4-.5 0-.4 0-.8v-10.4q0-.4 0-.7 .1-.3.4-.4 .3-.2 1-.2 .5 0 .8.1 .2.1.3.3 .1.3.2.5 0 .2 0 .3l-.1 1.1q.2-.5.6-.9 .4-.4 1-.7 .5-.4 1.1-.6 .7-.1 1.4-.1 1.2 0 2.2.4 1 .4 1.7 1.2 .7.9 1.1 2 .4 1.1.4 2.5v5.6q0 .5-.1.8-.1.3-.4.5-.2.1-.9.1-.6 0-1-.1-.3-.2-.3-.5-.1-.4-.1-.8v-5.6q0-1.1-.4-1.8-.3-.8-1-1.2-.7-.4-1.8-.4-1 0-1.8.4-.7.4-1.1 1.2-.5.8-.5 1.8v5.6q0 .5 0 .8-.1.3-.4.5-.3.1-1 .1zm18.2.2q-.7 0-1.4-.1-.7-.2-1.4-.4-.7-.3-1.2-.7-.6-.3-.7-.8-.2-.3-.2-.5 0-.3.2-.5 .1-.3.3-.5 .3-.3.5-.3 .3-.1.7.2 .3.2.7.4 .5.2.9.4 .4.2.9.4 .5.1.9.1 1.1 0 1.8-.4 .7-.4.7-1.1 0-.4-.2-.7-.2-.3-.5-.5-.3-.2-.8-.4-.4-.1-.9-.3-.4-.1-.9-.3-.7-.1-1.4-.4-.7-.3-1.3-.7-.5-.4-.9-1-.3-.6-.3-1.6 0-1.2.6-2 .6-.8 1.6-1.3 1.1-.4 2.6-.4 .5 0 1 .1 .5 0 1 .2 .5.2.9.4 .5.2.9.5 .5.4.6.8 0 .4-.4.9-.2.4-.5.5-.3.1-.6-.1-.5-.2-1-.5-.4-.2-1-.4-.5-.2-1-.2-.7 0-1.1.2-.5.2-.8.5-.2.4-.2.8 0 .4.2.7 .2.2.6.4 .4.2.8.3 .5.2 1.1.3 .7.2 1.5.4 .8.3 1.5.7 .7.4 1.1 1.1 .4.7.4 1.8 0 1.9-1.4 3-1.4 1-3.9 1zm20.6-.1q-1.3 0-2.2-.3-.9-.2-1.5-.8-.5-.5-.8-1.4-.3-.8-.3-2.1v-11.7q0-.4.1-.7 .1-.3.4-.5 .3-.2.9-.2 .6 0 .9.2 .3.2.4.5 .1.3.1.7v11.7q0 .6.1 1 .1.4.4.6 .2.2.6.2 .4.1.9.1 .5 0 .8.1 .3.1.5.3 .2.3.2.9 0 .6-.2.9-.2.3-.6.4-.3.1-.7.1zm-6-12.9 2.7 0 3.7-.1q.4 0 .7.1 .3.1.5.4 .2.3.2.9 0 .6-.2.9-.1.3-.4.4-.4.1-.8.1l-3.6-.1-2.9.1q-.6 0-.8-.4-.3-.3-.3-1 0-.7.3-1 .3-.3.9-.3zm11.3 12.9q-.6 0-.9-.2-.3-.2-.4-.5-.1-.4-.1-.8v-16.3q0-.5.1-.8 .1-.3.4-.5 .3-.2.9-.2 .7 0 1 .2 .3.2.3.5 .1.3.1.8v6.4q.6-.7 1.5-1.3 .9-.5 2.2-.5 1.6 0 2.9.7 1.3.8 2 2.2 .8 1.4.8 3.2v5.7q0 .4-.1.7-.1.3-.4.5-.3.2-.9.2-.7 0-1-.2-.3-.2-.4-.5 0-.3 0-.8v-5.6q0-1-.4-1.8-.3-.8-1-1.2-.7-.4-1.8-.4-1.4 0-2.3.8-.9.8-1.1 2.1v6.2q0 .4-.1.7-.1.3-.3.5-.3.2-1 .2zm24.1-.1q-.7 0-1-.2-.3-.3-.3-.8l.1-1.1q-.2.3-.8.9-.5.5-1.4.9-.9.4-2.1.4-1.3 0-2.4-.6-1.1-.5-2-1.4-.8-.9-1.3-2.1-.5-1.2-.5-2.6 0-1.3.5-2.5 .5-1.2 1.3-2.1 .9-.9 2-1.4 1.1-.5 2.4-.5 1.1 0 1.9.3 .8.3 1.4.8 .6.5 1 1l-.1-1q0-.5.3-.8 .3-.3 1.1-.3 .6 0 .9.2 .2.2.3.5 .1.4.1.8v10.2q0 .4-.1.7-.1.4-.3.6-.3.1-1 .1zm-5.1-2.7q1 0 1.8-.5 .9-.5 1.3-1.4 .5-.8.5-1.9 0-1.2-.5-2.1-.5-.8-1.3-1.3-.8-.5-1.8-.5-1.2 0-2 .5-.9.5-1.4 1.4-.4.9-.4 2 0 1.1.4 2 .5.8 1.4 1.3 .9.5 2 .5zm15.8 2.8q-1.3 0-2.2-.3-.9-.2-1.5-.8-.6-.5-.8-1.4-.3-.8-.3-2.1v-11.7q0-.4.1-.7 .1-.3.4-.5 .3-.2.9-.2 .6 0 .9.2 .3.2.4.5 .1.3.1.7v11.7q0 .6.1 1 .1.4.3.6 .3.2.6.2 .4.1 1 .1 .5 0 .8.1 .3.1.5.3 .1.3.1.9 0 .6-.2.9-.2.3-.5.4-.3.1-.7.1zm-6.1-12.9 2.7 0 3.8-.1q.4 0 .7.1 .3.1.5.4 .2.3.2.9 0 .6-.2.9-.2.3-.5.4-.3.1-.7.1l-3.7-.1-2.8.1q-.6 0-.9-.4-.2-.3-.2-1 0-.7.3-1 .2-.3.8-.3zm21.4 13q-.7 0-1.4-.1-.8-.2-1.5-.4-.6-.3-1.2-.7-.5-.3-.7-.8-.1-.3-.1-.5 0-.3.1-.5 .2-.3.4-.5 .2-.3.5-.3 .3-.1.7.2 .3.2.7.4 .4.2.9.4 .4.2.9.4 .4.1.9.1 1.1 0 1.8-.4 .6-.4.6-1.1 0-.4-.1-.7-.2-.3-.5-.5-.4-.2-.8-.4-.4-.1-.9-.3-.5-.1-1-.3-.7-.1-1.4-.4-.6-.3-1.2-.7-.5-.4-.9-1-.3-.6-.3-1.6 0-1.2.6-2 .5-.8 1.6-1.3 1.1-.4 2.5-.4 .6 0 1.1.1 .5 0 1 .2 .5.2.9.4 .4.2.8.5 .6.4.6.8 .1.4-.3.9-.3.4-.5.5-.3.1-.7-.1-.4-.2-.9-.5-.5-.2-1-.4-.5-.2-1.1-.2-.6 0-1.1.2-.4.2-.7.5-.2.4-.2.8 0 .4.2.7 .2.2.6.4 .3.2.8.3 .5.2 1.1.3 .7.2 1.5.4 .8.3 1.5.7 .7.4 1.1 1.1 .4.7.4 1.8 0 1.9-1.4 3-1.5 1-3.9 1zm13.2-.1q-1.2 0-2.2-.5-1-.4-1.8-1.2-.8-.8-1.2-2-.4-1.1-.4-2.5v-5.6q0-.4.1-.8 .1-.3.4-.4 .3-.2.9-.2 .6 0 .9.2 .3.1.4.5 .1.3.1.7v5.6q0 1.1.4 1.8 .3.8 1 1.2 .7.5 1.8.5 1 0 1.8-.5 .7-.4 1.1-1.2 .4-.7.4-1.8v-5.6q0-.4.1-.8 .1-.3.4-.5 .3-.1.9-.1 .7 0 1 .2 .3.1.3.5 .1.3.1.7v10.4q0 .4-.1.7 0 .3-.3.5-.3.1-1 .1-.4 0-.7-.1-.3-.1-.4-.2-.1-.2-.2-.4 0-.2 0-.4l.2-.9q-.3.3-.6.6-.4.4-.8.7-.5.3-1.2.6-.6.2-1.4.2zm10.9 0q-.7 0-1-.2-.2-.2-.3-.5-.1-.4-.1-.8v-10.3q0-.5.1-.8 .1-.3.4-.5 .3-.1.9-.1 .6 0 .9.1 .3.2.4.5 .1.2.1.5l-.2.6q.2-.2.4-.6 .3-.3.7-.6 .4-.3.9-.5 .6-.2 1.4-.2 .4 0 .7.1 .4 0 .7.2 .4.1.7.3 .2.2.4.4 .1.2.1.5 0 .7-.4 1.3-.4.5-.9.5-.3 0-.5-.1-.2-.1-.3-.2-.2-.1-.4-.2-.3-.1-.8-.1-.4 0-.8.1-.5.2-.8.5-.4.3-.7.7-.2.5-.2 1.1v6.9q0 .4-.1.7-.1.3-.4.5-.3.2-.9.2zm15.4 0q-.5 0-.8-.1-.4-.2-.5-.6l-5-10.6q-.4-.7-.2-1.1 .2-.4.9-.8 .7-.3 1.1-.2 .4.1.8.9l3.7 8.9 3.7-8.7q.4-.8.8-1 .4-.3 1.2.2 .9.4.9.9 0 .5-.3 1.1l-4.9 10.4q-.2.4-.5.5-.3.2-.9.2zm10.5 0q-.7 0-1-.2-.3-.2-.3-.5-.1-.3-.1-.8v-10.3q0-.4.1-.7 0-.3.3-.5 .3-.2 1-.2 .6 0 .9.2 .3.2.4.5 .1.3.1.7v10.4q0 .4-.1.7-.1.3-.4.5-.3.2-.9.2zm0-16.1q-.7 0-1.1-.2-.3-.2-.4-.6-.1-.4-.1-.8 0-.5.1-.8 .1-.4.5-.6 .3-.2 1-.2 .7 0 1 .2 .3.2.4.6 .1.4.1.8 0 .5-.1.8-.1.4-.4.6-.3.2-1 .2zm10.4 16.1q-.5 0-.8-.1-.4-.2-.6-.6l-4.9-10.6q-.4-.7-.2-1.1 .2-.4.9-.8 .6-.3 1.1-.2 .4.1.7.9l3.8 8.9 3.7-8.7q.3-.8.8-1 .4-.3 1.2.2 .8.4.9.9 0 .5-.3 1.1l-4.9 10.4q-.2.4-.5.5-.4.2-.9.2zm14.4.1q-1.7 0-3-.5-1.3-.6-2.2-1.5-.8-1-1.3-2.2-.4-1.2-.4-2.6 0-1.9.8-3.4 .9-1.5 2.5-2.3 1.5-.9 3.5-.9 1.4 0 2.5.4 1.1.5 1.9 1.2 .7.7 1.1 1.6 .4.9.4 1.7 0 1.4-.7 2-.6.6-1.6.6h-7.5q0 1.1.6 1.9 .6.7 1.6 1.1 .9.4 1.9.4 .7 0 1.2 0 .5-.1.9-.3 .4-.1.7-.2 .3-.2.5-.3 .3-.1.5-.1 .3-.1.5.1 .3.1.5.4 .1.3.2.5 0 .2 0 .4 0 .5-.6.9-.7.5-1.8.8-1.2.3-2.7.3zm-4-7.6h6.2q.5 0 .7-.2 .3-.1.3-.6 0-.7-.5-1.3-.4-.5-1.1-.9-.7-.3-1.7-.3-1.1 0-2 .4-.9.5-1.4 1.2-.5.8-.5 1.7zm24.7 7.5q-1.3 0-2.6-.4-1.2-.5-2.1-1.3-1-.9-1.6-2.1-.5-1.3-.5-2.8 0-1.6.5-2.8 .6-1.2 1.5-2.1 1-.9 2.2-1.3 1.2-.5 2.6-.5 .9 0 1.8.3 .8.3 1.5.7 .6.4.9.8 .4.4.5.6 .2.3.1.7-.1.2-.3.4-.1.2-.3.4-.6.5-1.2.3-.3-.2-.7-.5-.3-.2-.7-.4-.4-.2-.8-.4-.4-.1-.8-.1-1.2 0-2.1.5-.8.5-1.3 1.4-.5.8-.5 2 0 1.1.5 2 .5.9 1.3 1.4 .9.4 2 .4 .5 0 1-.1 .5-.1.9-.3 .4-.3.7-.5 .3-.2.5-.4 .2-.1.5-.1 .2 0 .5.2 .3.2.6.6 .3.3.3.6 .1.4-.1.7-.2.3-.5.5-.4.4-1.1.8-.7.3-1.5.6-.8.2-1.7.2zm8.8 0q-.6 0-.9-.2-.3-.2-.4-.5-.1-.4-.1-.8v-10.3q0-.5.1-.8 .1-.3.4-.5 .3-.1.9-.1 .7 0 .9.1 .3.2.4.5 .1.2.1.5l-.1.6q.1-.2.4-.6 .2-.3.6-.6 .4-.3 1-.5 .5-.2 1.3-.2 .4 0 .8.1 .3 0 .7.2 .3.1.6.3 .3.2.4.4 .2.2.2.5 0 .7-.4 1.3-.4.5-.9.5-.4 0-.6-.1-.2-.1-.3-.2-.1-.1-.4-.2-.2-.1-.8-.1-.4 0-.8.1-.4.2-.8.5-.4.3-.6.7-.3.5-.3 1.1v6.9q0 .4 0 .7-.1.3-.4.5-.3.2-1 .2zm15.2.1q-1.7 0-3-.5-1.3-.6-2.2-1.5-.8-1-1.3-2.2-.5-1.2-.5-2.6 0-1.9.9-3.4 .9-1.5 2.5-2.3 1.5-.9 3.5-.9 1.4 0 2.5.4 1.1.5 1.8 1.2 .8.7 1.2 1.6 .4.9.4 1.7 0 1.4-.7 2-.6.6-1.6.6h-7.5q0 1.1.6 1.9 .6.7 1.5 1.1 1 .4 1.9.4 .8 0 1.3 0 .5-.1.9-.3 .4-.1.7-.2 .3-.2.5-.3 .3-.1.5-.1 .2-.1.5.1 .3.1.4.4 .2.3.3.5 0 .2 0 .4 0 .5-.6.9-.7.5-1.8.8-1.2.3-2.7.3zm-4-7.6h6.2q.4 0 .7-.2 .2-.1.2-.6 0-.7-.4-1.3-.4-.5-1.1-.9-.7-.3-1.7-.3-1.1 0-2 .4-.9.5-1.4 1.2-.5.8-.5 1.7zm17.9 7.5q-1.2 0-2.3-.5-1.1-.5-2-1.4-.8-.9-1.3-2.1-.4-1.3-.4-2.7 0-1.4.4-2.6 .5-1.1 1.4-2 .8-.9 1.9-1.4 1.1-.5 2.3-.5 1.3 0 2.4.5 1 .5 1.8 1.4 .7.9 1.1 2.1 .4 1.2.4 2.5 0 1.5-.4 2.7-.4 1.1-1.1 2-.7.9-1.8 1.5-1 .5-2.4.5zm.4-2.8q1.1 0 1.9-.5 .8-.5 1.3-1.3 .5-.9.5-2 0-1.2-.5-2-.5-.9-1.3-1.4-.9-.5-1.9-.5-1 0-1.9.5-.8.5-1.3 1.4-.5.8-.5 2 0 1.1.5 2 .5.8 1.3 1.3 .9.5 1.9.5zm5.2 2.8q-.7 0-1-.3-.3-.2-.4-.7v-16.8q0-.4 0-.8 .1-.3.4-.5 .3-.2.9-.2 .7 0 1 .2 .3.2.3.5 .1.3.1.8v16.3q0 .4 0 .8-.1.3-.4.5-.3.2-.9.2zm10.7.1q-1.7 0-3-.5-1.3-.6-2.2-1.5-.8-1-1.3-2.2-.4-1.2-.4-2.6 0-1.9.8-3.4 .9-1.5 2.5-2.3 1.5-.9 3.5-.9 1.4 0 2.5.4 1.1.5 1.9 1.2 .7.7 1.1 1.6 .4.9.4 1.7 0 1.4-.7 2-.6.6-1.6.6h-7.5q0 1.1.6 1.9 .6.7 1.6 1.1 .9.4 1.9.4 .7 0 1.2 0 .5-.1.9-.3 .4-.1.7-.2 .3-.2.5-.3 .3-.1.5-.1 .3-.1.5.1 .3.1.5.4 .1.3.2.5 0 .2 0 .4 0 .5-.6.9-.7.5-1.8.8-1.2.3-2.7.3zm-4-7.6h6.2q.5 0 .7-.2 .3-.1.3-.6 0-.7-.5-1.3-.4-.5-1.1-.9-.7-.3-1.7-.3-1.1 0-2 .4-.9.5-1.4 1.2-.5.8-.5 1.7zm13.6 7.4q-.6 0-.9-.1-.3-.2-.4-.5 0-.4 0-.8v-10.4q0-.4.1-.7 0-.3.3-.4 .3-.2 1-.2 .5 0 .8.1 .2.1.3.3 .1.3.2.5 0 .2 0 .3l-.1 1.1q.2-.5.6-.9 .4-.4 1-.7 .5-.4 1.1-.6 .7-.1 1.4-.1 1.2 0 2.2.4 1 .4 1.7 1.2 .7.9 1.1 2 .4 1.1.4 2.5v5.6q0 .5-.1.8-.1.3-.4.5-.2.1-.9.1-.6 0-.9-.1-.4-.2-.4-.5-.1-.4-.1-.8v-5.6q0-1.1-.4-1.8-.3-.8-1-1.2-.7-.4-1.8-.4-1 0-1.8.4-.7.4-1.1 1.2-.5.8-.5 1.8v5.6q0 .5 0 .8-.1.3-.4.5-.3.1-1 .1zm19.8.1q-1.3 0-2.2-.3-.9-.2-1.5-.8-.5-.5-.8-1.4-.3-.8-.3-2.1v-11.7q0-.4.1-.7 .1-.3.4-.5 .3-.2.9-.2 .6 0 .9.2 .3.2.4.5 .1.3.1.7v11.7q0 .6.1 1 .1.4.4.6 .2.2.6.2 .4.1.9.1 .5 0 .8.1 .3.1.5.3 .2.3.2.9 0 .6-.2.9-.2.3-.6.4-.3.1-.7.1zm-6-12.9 2.7 0 3.7-.1q.4 0 .7.1 .3.1.5.4 .2.3.2.9 0 .6-.2.9-.1.3-.5.4-.3.1-.7.1l-3.6-.1-2.9.1q-.6 0-.9-.4-.2-.3-.2-1 0-.7.3-1 .3-.3.9-.3zm11.6 12.9q-.6 0-.9-.2-.3-.2-.4-.5-.1-.3-.1-.8v-10.3q0-.4.1-.7 .1-.3.4-.5 .3-.2.9-.2 .7 0 .9.2 .3.2.4.5 .1.3.1.7v10.4q0 .4-.1.7-.1.3-.4.5-.3.2-.9.2zm0-16.1q-.7 0-1-.2-.4-.2-.5-.6 0-.4 0-.8 0-.5.1-.8 .1-.4.4-.6 .3-.2 1-.2 .7 0 1 .2 .4.2.5.6 .1.4.1.8 0 .5-.1.8-.1.4-.5.6-.3.2-1 .2zm15.4 16q-.7 0-1-.2-.3-.3-.3-.8l.1-1.1q-.2.3-.8.9-.5.5-1.4.9-.9.4-2.1.4-1.3 0-2.4-.6-1.1-.5-2-1.4-.8-.9-1.3-2.1-.5-1.2-.5-2.6 0-1.3.5-2.5 .5-1.2 1.3-2.1 .9-.9 2-1.4 1.1-.5 2.4-.5 1.1 0 1.9.3 .8.3 1.4.8 .6.5 1 1l-.1-1q0-.5.3-.8 .3-.3 1.1-.3 .6 0 .9.2 .2.2.3.5 .1.4.1.8v10.2q0 .4-.1.7-.1.4-.4.6-.2.1-.9.1zm-5.1-2.7q1 0 1.8-.5 .9-.5 1.3-1.4 .5-.8.5-1.9 0-1.2-.5-2.1-.5-.8-1.3-1.3-.8-.5-1.8-.5-1.2 0-2 .5-.9.5-1.4 1.4-.5.9-.5 2 0 1.1.5 2 .5.8 1.4 1.3 .9.5 2 .5zm13.8 2.8q-.9 0-1.6-.2-.8-.1-1.3-.4-.5-.4-.9-.9-.3-.5-.5-1.3-.2-.8-.2-1.8v-13.3q0-.4.1-.7 .1-.3.4-.5 .3-.2.9-.2 .7 0 1 .2 .3.1.4.5 .1.3.1.7v13.2q0 .5 0 .9 .1.4.3.6 .2.2.6.3 .3.1.7.1 .3 0 .6.1 .3.1.4.4 .2.3.2.9 0 .6-.2.9-.1.3-.4.4-.3.1-.6.1zm16.4.1q-1.7 0-2.9-.5-1.3-.6-2.2-1.5-.9-1-1.3-2.2-.5-1.2-.5-2.6 0-1.9.9-3.4 .9-1.5 2.4-2.3 1.6-.9 3.6-.9 1.4 0 2.5.4 1.1.5 1.8 1.2 .8.7 1.2 1.6 .3.9.3 1.7 0 1.4-.6 2-.7.6-1.7.6h-7.4q0 1.1.6 1.9 .6.7 1.5 1.1 .9.4 1.9.4 .7 0 1.2 0 .6-.1 1-.3 .4-.1.7-.2 .2-.2.5-.3 .2-.1.4-.1 .3-.1.6.1 .2.1.4.4 .2.3.2.5 .1.2.1.4 0 .5-.7.9-.6.5-1.8.8-1.1.3-2.7.3zm-3.9-7.6h6.1q.5 0 .8-.2 .2-.1.2-.6 0-.7-.4-1.3-.4-.5-1.2-.9-.7-.3-1.6-.3-1.1 0-2 .4-.9.5-1.4 1.2-.5.8-.5 1.7zm22.7-5.4q.4.3.5.7 .2.3.1.6-.2.3-.6.8l-8.5 10.2q-.4.5-.8.6-.3.2-.6.1-.3-.1-.7-.5-.4-.3-.5-.6-.2-.3 0-.7 .1-.3.5-.8l8.6-10.2q.6-.6 1-.7 .4-.1 1 .5zm-10.5 0q.4-.4.7-.5 .3-.1.6.1 .3.2.6.6l8.6 10.2q.4.5.5.8 .2.4.1.7-.2.3-.6.6-.4.4-.7.5-.3.1-.6-.1-.3-.1-.7-.6l-8.6-10.2q-.4-.5-.5-.8-.2-.4 0-.7 .1-.3.6-.6zm20.2 12.7q-1.3 0-2.3-.5-1.1-.5-1.8-1.3-.8-.9-1.2-2.1-.4-1.2-.3-2.6 0-1.4.4-2.6 .4-1.2 1.1-2.1 .7-.9 1.8-1.4 1-.5 2.3-.5 1.3 0 2.4.5 1.1.5 1.9 1.4 .9.9 1.3 2.1 .5 1.3.5 2.7 0 1.4-.5 2.5-.4 1.2-1.3 2.1-.8.9-1.9 1.3-1.1.5-2.4.5zm-5.5 5.5q-.6 0-.9-.1-.3-.2-.4-.5-.1-.3-.1-.8v-15.7q0-.4.1-.7 .1-.3.4-.5 .3-.2.9-.2 .7 0 1 .2 .3.2.4.7v16.2q.1.4 0 .8-.1.3-.4.5-.3.1-1 .1zm5.1-8.1q1.1 0 1.9-.5 .9-.5 1.3-1.4 .5-.9.5-2 0-1.1-.4-2-.5-.9-1.4-1.3-.8-.5-1.8-.5-1.1 0-1.9.5-.8.5-1.3 1.3-.5.9-.5 2 0 1.1.5 2 .5.9 1.3 1.4 .8.5 1.8.5zm10.6 2.8q-.6 0-.9-.2-.3-.2-.4-.5-.1-.3-.1-.8v-10.3q0-.4.1-.7 .1-.3.4-.5 .3-.2.9-.2 .7 0 1 .2 .3.2.3.5 .1.3.1.7v10.4q0 .4-.1.7 0 .3-.3.5-.3.2-1 .2zm0-16.1q-.7 0-1-.2-.3-.2-.4-.6-.1-.4-.1-.8 0-.5.1-.8 .1-.4.4-.6 .3-.2 1-.2 .7 0 1 .2 .4.2.5.6 .1.4.1.8 0 .5-.1.8-.1.4-.5.6-.3.2-1 .2zm6.1 16.1q-.7 0-1-.2-.3-.2-.3-.5-.1-.4-.1-.8v-10.3q0-.5.1-.8 .1-.3.3-.5 .3-.1 1-.1 .6 0 .9.1 .3.2.4.5 .1.2.1.5l-.2.6q.2-.2.4-.6 .3-.3.7-.6 .4-.3.9-.5 .6-.2 1.4-.2 .4 0 .7.1 .4 0 .7.2 .4.1.7.3 .2.2.4.4 .1.2.1.5 0 .7-.4 1.3-.4.5-.9.5-.4 0-.5-.1-.2-.1-.3-.2-.2-.1-.4-.2-.3-.1-.8-.1-.4 0-.9.1-.4.2-.8.5-.3.3-.6.7-.2.5-.2 1.1v6.9q0 .4-.1.7-.1.3-.4.5-.3.2-.9.2zm12.1 5.3q-.8-.4-.9-.8-.1-.4.2-1.1l7.1-15.8q.3-.8.7-.9 .4-.2 1.1.1 .8.4.9.8 .1.4-.2 1.1l-7.1 15.9q-.3.7-.7.9-.4.1-1.1-.2zm2.6-6.8-6.2-9.6q-.5-.6-.4-1.1 .1-.4.8-.8 .7-.4 1.1-.3 .4.1.8.7l5.1 8z"/></g></svg>
